<svg xmlns="http://www.w3.org/2000/svg" width="134" height="44" viewBox="0 0 134 44">
    <g fill="none" fill-rule="evenodd">
        <g>
            <g>
                <g>
                    <path fill="#000" fill-rule="nonzero" d="M128.078 44H5.923C2.653 44 0 41.337 0 38.053V5.946C0 2.663 2.652 0 5.923 0h122.155C131.348 0 134 2.663 134 5.946v32.107c0 3.284-2.651 5.947-5.922 5.947z" transform="translate(-1240 -333) translate(1086 333) translate(154)"/>
                    <g>
                        <path fill="#FFFFFE" d="M20.21 18.63c-.552 1.224-.817 1.77-1.528 2.852-.992 1.511-2.39 3.392-4.123 3.408-1.54.014-1.936-1.002-4.026-.99-2.09.01-2.526 1.008-4.066.994-1.733-.016-3.059-1.715-4.051-3.225-2.775-4.225-3.065-9.182-1.354-11.817 1.217-1.873 3.135-2.97 4.94-2.97 1.836 0 2.99 1.008 4.51 1.008 1.472 0 2.37-1.01 4.494-1.01 1.605 0 3.306.874 4.518 2.386-3.97 2.176-3.326 7.847.686 9.363" transform="translate(-1240 -333) translate(1086 333) translate(154) translate(22 10)"/>
                        <path fill="#FFFFFE" d="M13.395 5.193c.771-.99 1.357-2.389 1.145-3.818-1.26.087-2.735.888-3.596 1.934-.781.949-1.426 2.357-1.175 3.724 1.376.043 2.8-.779 3.626-1.84M29.607 11.712c.134.522.28 1.064.465 1.65l1.072 3.103h-3.05l1.057-3.123c.161-.506.314-1.053.456-1.63zm-.943-1.924l-3.975 11.7h1.82l1.187-3.592h3.849l1.22 3.592h1.87l-3.991-11.7h-1.98zM39.339 14.287c1.578 0 2.284 1.461 2.284 2.91 0 1.868-.901 3.03-2.352 3.03-.99 0-1.846-.675-2.085-1.644-.041-.15-.063-.348-.063-.573v-1.423c0-.13.029-.286.056-.437.009-.049.019-.097.026-.144.264-1.013 1.14-1.72 2.134-1.72zm.44-1.466c-1.205 0-2.17.465-2.814 1.35l-.07-1.164h-1.62l.01.149c.048.725.068 1.523.068 2.669v9.019h1.77v-4.21c.55.658 1.426 1.04 2.42 1.04 1.035 0 1.988-.405 2.682-1.14.776-.82 1.185-1.997 1.185-3.405 0-1.244-.355-2.319-1.029-3.109-.659-.773-1.583-1.2-2.601-1.2zM48.455 14.287c1.577 0 2.284 1.461 2.284 2.91 0 1.868-.902 3.03-2.352 3.03-.99 0-1.847-.675-2.085-1.644-.041-.15-.063-.348-.063-.573v-1.423c0-.13.029-.287.057-.439l.025-.142c.263-1.013 1.14-1.72 2.134-1.72zm.44-1.466c-1.205 0-2.17.465-2.814 1.35l-.07-1.164h-1.62l.01.149c.048.726.068 1.523.068 2.669v9.019h1.77v-4.21c.55.658 1.426 1.04 2.42 1.04 1.034 0 1.988-.405 2.683-1.14.775-.82 1.184-1.997 1.184-3.405 0-1.244-.356-2.319-1.029-3.109-.659-.773-1.583-1.2-2.601-1.2zM60.316 14.746c-1.652-.64-2.181-1.143-2.181-2.073 0-.783.622-1.572 2.012-1.572 1.147 0 1.88.398 2.078.521l.15.093.5-1.478-.1-.057c-.296-.174-1.141-.579-2.577-.579-2.258 0-3.835 1.333-3.835 3.24 0 1.54.988 2.615 3.108 3.385 1.502.562 2.061 1.137 2.061 2.123 0 1.116-.863 1.809-2.25 1.809-.904 0-1.834-.263-2.552-.723l-.153-.099-.475 1.512.087.057c.668.447 1.926.77 2.992.77 3.042 0 4.121-1.856 4.121-3.444 0-1.638-.865-2.648-2.986-3.485M66.489 10.991l-1.736.546v1.47h-1.271v1.415h1.27v4.334c0 1.048.201 1.782.614 2.246.395.434 1.003.673 1.712.673.67 0 1.145-.133 1.369-.212l.099-.035-.085-1.417-.17.052c-.224.069-.453.095-.823.095-.686 0-.979-.434-.979-1.453v-4.283h2.136v-1.415h-2.136v-2.016M72.96 14.219c1.593 0 2.318 1.552 2.318 2.995 0 1.775-.99 3.063-2.351 3.063h-.017c-1.343 0-2.318-1.267-2.318-3.012 0-1.516.733-3.046 2.368-3.046zm.052-1.398c-2.477 0-4.207 1.849-4.207 4.494 0 2.567 1.674 4.36 4.071 4.36h.016c2.027 0 4.207-1.412 4.207-4.512 0-1.26-.39-2.343-1.128-3.131-.743-.792-1.766-1.211-2.96-1.211zM82.521 12.903l-.106-.027c-.156-.039-.283-.055-.44-.055-.926 0-1.757.545-2.22 1.425l-.052-1.239h-1.588l.01.149c.047.7.067 1.488.067 2.55l-.017 5.782h1.77v-4.511c0-.246.017-.478.05-.687.199-1.083.93-1.784 1.862-1.784.181 0 .324.015.475.03l.19.02v-1.653M86.384 14.151c.539 0 .976.167 1.3.496.508.518.598 1.281.609 1.648h-4.038c.165-1.023.804-2.144 2.129-2.144zm.117-1.347c-2.356 0-4.002 1.883-4.002 4.58 0 2.596 1.637 4.274 4.172 4.274 1.333 0 2.26-.293 2.803-.538l.106-.048-.34-1.319-.148.06c-.482.196-1.123.396-2.217.396-.77 0-2.543-.254-2.652-2.567l5.714.018.023-.114c.036-.18.053-.422.053-.738 0-1.847-.92-4.004-3.512-4.004z" transform="translate(-1240 -333) translate(1086 333) translate(154) translate(22 10)"/>
                        <text fill="#FFF" font-family="Roboto-Medium, Roboto" font-size="7" font-weight="400" transform="translate(-1240 -333) translate(1086 333) translate(154) translate(22 10)">
                            <tspan x="26.201" y="6">Available on the</tspan>
                        </text>
                    </g>
                </g>
            </g>
        </g>
    </g>
</svg>
