<?xml version="1.0" ?>
<svg height="105" viewBox="0 0 105 105" width="105" xmlns="http://www.w3.org/2000/svg">
  <path d="M0,0h105v105h-105z" fill="#f7f7f7"/>
  <path d="M62.959,62.959L43.041,62.959L43.041,43.041L62.959,43.041m0,-2.846L43.041,40.195A2.846,2.846 0,0 0,40.195 43.041L40.195,62.959A2.846,2.846 0,0 0,43.041 65.805L62.959,65.805a2.846,2.846 0,0 0,2.846 -2.846L65.805,43.041A2.846,2.846 0,0 0,62.959 40.195M55.788,53.412l-3.913,5.037L49.087,55.095 45.175,60.114L60.825,60.114Z" fill="#d8d4d4"/>
</svg>
