<svg xmlns="http://www.w3.org/2000/svg" width="134" height="44" viewBox="0 0 134 44">
    <defs>
        <linearGradient id="mv8sbc6eya" x1="61.024%" x2="26.115%" y1="4.84%" y2="71.968%">
            <stop offset="0%" stop-color="#00A0FF"/>
            <stop offset=".7%" stop-color="#00A1FF"/>
            <stop offset="26%" stop-color="#00BEFF"/>
            <stop offset="51.2%" stop-color="#00D2FF"/>
            <stop offset="76%" stop-color="#00DFFF"/>
            <stop offset="100%" stop-color="#00E3FF"/>
        </linearGradient>
        <linearGradient id="yc49hkaeob" x1="107.724%" x2="-130.67%" y1="49.424%" y2="49.424%">
            <stop offset="0%" stop-color="#FFE000"/>
            <stop offset="40.9%" stop-color="#FFBD00"/>
            <stop offset="77.5%" stop-color="orange"/>
            <stop offset="100%" stop-color="#FF9C00"/>
        </linearGradient>
        <linearGradient id="zzu6p2862c" x1="86.389%" x2="-49.886%" y1="30.829%" y2="136.002%">
            <stop offset="0%" stop-color="#FF3A44"/>
            <stop offset="100%" stop-color="#C31162"/>
        </linearGradient>
        <linearGradient id="83qx3fo9xd" x1="-18.581%" x2="42.275%" y1="-11.683%" y2="35.066%">
            <stop offset="0%" stop-color="#32A071"/>
            <stop offset="6.9%" stop-color="#2DA771"/>
            <stop offset="47.6%" stop-color="#15CF74"/>
            <stop offset="80.1%" stop-color="#06E775"/>
            <stop offset="100%" stop-color="#00F076"/>
        </linearGradient>
    </defs>
    <g fill="none" fill-rule="evenodd">
        <g fill-rule="nonzero">
            <g>
                <path fill="#000" d="M129.037 44H4.963C2.183 44 0 41.58 0 38.5v-33C0 2.42 2.184 0 4.963 0h124.074C131.817 0 134 2.42 134 5.5v33c0 3.08-2.184 5.5-4.963 5.5z" transform="translate(-1086 -333) translate(1086 333)"/>
                <path fill="#FFF" stroke="#FFF" stroke-width=".5" d="M52.895 14.585c0 .673-.169 1.262-.59 1.683-.505.505-1.094.758-1.851.758-.758 0-1.347-.253-1.852-.758-.505-.505-.757-1.094-.757-1.851 0-.758.252-1.347.757-1.852.505-.505 1.094-.758 1.852-.758.336 0 .673.085 1.01.253.336.168.589.337.757.59l-.42.42c-.337-.42-.758-.59-1.347-.59-.505 0-1.01.17-1.347.59-.42.337-.59.842-.59 1.43 0 .59.17 1.095.59 1.432.42.336.842.589 1.347.589.589 0 1.01-.169 1.43-.59.253-.252.421-.589.421-1.01h-1.851v-.673h2.44v.337h0zm3.871-2.104h-2.272v1.599h2.104v.59h-2.104v1.598h2.272v.674H53.82v-5.05h2.946v.589zm2.778 4.46h-.674v-4.46h-1.43v-.59h3.534v.59h-1.43v4.46zm3.871 0v-5.05h.674v5.05h-.674zm3.535 0h-.673v-4.46h-1.431v-.59h3.45v.59h-1.43v4.46h.084zm7.996-.673c-.505.505-1.094.758-1.852.758-.757 0-1.346-.253-1.851-.758-.505-.505-.758-1.094-.758-1.851 0-.758.253-1.347.758-1.852.505-.505 1.094-.758 1.851-.758.758 0 1.347.253 1.852.758.505.505.757 1.094.757 1.852 0 .757-.252 1.346-.757 1.851zm-3.198-.42c.336.336.841.589 1.346.589.505 0 1.01-.169 1.347-.59.337-.336.59-.841.59-1.43 0-.59-.17-1.095-.59-1.431-.337-.337-.842-.59-1.347-.59s-1.01.169-1.346.59c-.337.336-.59.841-.59 1.43 0 .59.169 1.095.59 1.431zm4.881 1.094v-5.05h.758l2.44 3.955v-3.955h.674v5.05h-.673l-2.61-4.125v4.125h-.589 0z" transform="translate(-1086 -333) translate(1086 333)"/>
                <path fill="#FFF" d="M69.317 24.348c-2.02 0-3.62 1.515-3.62 3.62 0 2.02 1.6 3.618 3.62 3.618s3.619-1.515 3.619-3.619c0-2.188-1.6-3.619-3.62-3.619zm0 5.723c-1.094 0-2.02-.925-2.02-2.188 0-1.262.926-2.188 2.02-2.188 1.094 0 2.02.841 2.02 2.188 0 1.263-.926 2.188-2.02 2.188zm-7.828-5.723c-2.02 0-3.619 1.515-3.619 3.62 0 2.02 1.6 3.618 3.62 3.618s3.619-1.515 3.619-3.619c0-2.188-1.6-3.619-3.62-3.619zm0 5.723c-1.094 0-2.02-.925-2.02-2.188 0-1.262.926-2.188 2.02-2.188 1.095 0 2.02.841 2.02 2.188 0 1.263-.925 2.188-2.02 2.188zm-9.342-4.629v1.515h3.62c-.085.842-.422 1.515-.843 1.936-.505.505-1.346 1.094-2.777 1.094-2.272 0-3.956-1.767-3.956-4.04 0-2.272 1.768-4.04 3.956-4.04 1.178 0 2.104.505 2.777 1.094l1.095-1.094c-.926-.841-2.105-1.515-3.788-1.515-3.03 0-5.639 2.525-5.639 5.555s2.61 5.555 5.64 5.555c1.682 0 2.86-.505 3.87-1.599 1.01-1.01 1.347-2.44 1.347-3.535 0-.337 0-.673-.084-.926h-5.218zm38.211 1.179c-.336-.842-1.178-2.273-3.03-2.273-1.851 0-3.366 1.43-3.366 3.62 0 2.02 1.515 3.618 3.535 3.618 1.599 0 2.609-1.01 2.945-1.599l-1.178-.841c-.42.589-.926 1.01-1.767 1.01-.842 0-1.347-.337-1.768-1.095l4.798-2.02-.169-.42zm-4.881 1.178c0-1.347 1.094-2.104 1.851-2.104.59 0 1.179.336 1.347.757L85.477 27.8zm-3.956 3.45h1.599V20.73h-1.6v10.52zm-2.525-6.143c-.421-.421-1.094-.842-1.936-.842-1.767 0-3.45 1.6-3.45 3.62 0 2.019 1.598 3.534 3.45 3.534.842 0 1.515-.42 1.852-.842h.084v.505c0 1.347-.758 2.105-1.936 2.105-.926 0-1.6-.674-1.767-1.263l-1.347.59c.42.925 1.43 2.103 3.198 2.103 1.852 0 3.367-1.094 3.367-3.703v-6.397h-1.515v.59zm-1.852 4.965c-1.094 0-2.02-.925-2.02-2.188 0-1.262.926-2.188 2.02-2.188 1.094 0 1.936.926 1.936 2.188 0 1.263-.842 2.188-1.936 2.188zm20.537-9.342h-3.788v10.52h1.6v-3.955h2.188c1.767 0 3.45-1.263 3.45-3.283s-1.683-3.282-3.45-3.282zm.084 5.05h-2.273v-3.62h2.273c1.178 0 1.851 1.01 1.851 1.768-.084.926-.757 1.852-1.851 1.852zm9.679-1.515c-1.178 0-2.357.505-2.778 1.6l1.431.588c.337-.589.842-.757 1.431-.757.842 0 1.6.505 1.683 1.346v.085c-.252-.169-.925-.421-1.599-.421-1.515 0-3.03.841-3.03 2.356 0 1.431 1.263 2.357 2.61 2.357 1.094 0 1.599-.505 2.02-1.01h.083v.842h1.515v-4.04c-.168-1.852-1.599-2.946-3.366-2.946zm-.168 5.807c-.505 0-1.263-.252-1.263-.925 0-.842.926-1.095 1.683-1.095.674 0 1.01.169 1.431.337-.168 1.01-1.01 1.683-1.851 1.683zm8.837-5.555l-1.768 4.545h-.084l-1.851-4.545h-1.684l2.778 6.397-1.6 3.535h1.6l4.292-9.932h-1.683zm-14.14 6.734h1.6V20.729h-1.6v10.52z" transform="translate(-1086 -333) translate(1086 333)"/>
                <g>
                    <path fill="url(#mv8sbc6eya)" d="M.337.33C.084.582 0 1.003 0 1.508v18.6c0 .506.168.927.42 1.18l.085.083 10.437-10.436v-.169L.337.33z" transform="translate(-1086 -333) translate(1086 333) translate(20.417 11.982)"/>
                    <path fill="url(#yc49hkaeob)" d="M14.308 14.47l-3.45-3.451v-.253l3.45-3.45.084.084 4.124 2.356c1.179.674 1.179 1.768 0 2.441l-4.208 2.273z" transform="translate(-1086 -333) translate(1086 333) translate(20.417 11.982)"/>
                    <path fill="url(#zzu6p2862c)" d="M14.392 14.386l-3.535-3.535L.337 21.37c.42.421 1.01.421 1.767.085l12.288-7.07" transform="translate(-1086 -333) translate(1086 333) translate(20.417 11.982)"/>
                    <path fill="url(#83qx3fo9xd)" d="M14.392 7.316L2.104.33C1.347-.09.757-.007.337.414l10.52 10.437 3.535-3.535z" transform="translate(-1086 -333) translate(1086 333) translate(20.417 11.982)"/>
                    <path fill="#000" d="M14.308 14.301L2.104 21.203c-.673.42-1.262.337-1.683 0l-.084.084.084.084c.42.337 1.01.421 1.683 0l12.204-7.07z" opacity=".2" transform="translate(-1086 -333) translate(1086 333) translate(20.417 11.982)"/>
                    <path fill="#000" d="M.337 21.203C.084 20.951 0 20.53 0 20.025v.084c0 .505.168.926.42 1.178v-.084H.338zm18.18-9.258L14.307 14.3l.084.085 4.124-2.357c.59-.337.842-.758.842-1.178 0 .42-.337.757-.842 1.094z" opacity=".12" transform="translate(-1086 -333) translate(1086 333) translate(20.417 11.982)"/>
                    <path fill="#FFF" d="M2.104.414l16.412 9.342c.505.337.842.674.842 1.095 0-.421-.252-.842-.842-1.179L2.104.33C.926-.343 0 .162 0 1.508v.084C0 .33.926-.259 2.104.414z" opacity=".25" transform="translate(-1086 -333) translate(1086 333) translate(20.417 11.982)"/>
                </g>
            </g>
        </g>
    </g>
</svg>
